<svg fill="#fff" data-name="Режим изоляции" xmlns="http://www.w3.org/2000/svg" viewBox="0 0 30.52 8.48"><path d="M24.44 0v3.69l-1.62-1.72V0h-1.09v8.48h1.09V3.36l1.62 1.72v3.4h1.08V0h-1.08zM0 0v8.49h1.08v-4.4H3l.62-1.08H1.08V1.08h2.54V0H0zM5.54.04H4.46v8.44h1.08V3.93h1.42v4.45h1.09V4.55l-.72-.62h.72V.03H5.54zm0 2.81V1.12h1.42v1.73zM9.97 0H8.89v8.48h1.08v-.01h2.5v-3.9h-2.5V3.9h2.5V0h-2.5zm1.42 5.65V7.4H9.97V5.65zM9.97 2.81V1.08h1.42v1.73zM13.12 0v8.47h3.59V1.09L15.62.8zm2.5 5.65V7.4H14.2V1.42l1.42.44v3.8zM17.37 0v8.47h3.6V1.09L19.87.8zm2.51 5.65V7.4h-1.42V1.42l1.42.44v3.8z"/></svg>