<svg id="Слой_1" data-name="Слой 1" xmlns="http://www.w3.org/2000/svg" viewBox="0 0 155.00003 89.40001"><defs><style>.cls-1{fill:#020001;}</style></defs><polygon class="cls-1" points="148.1 0 148.1 23.6 137.7 12.6 137.7 0 130.8 0 130.8 54.3 137.7 54.3 137.7 21.5 148.1 32.5 148.1 54.3 155 54.3 155 0 148.1 0"/><polygon class="cls-1" points="0 0 0 6.9 0 29.2 0 36.2 0 54.3 7 54.3 7 36.2 16.1 36.2 16.1 29.2 7 29.2 7 6.9 43.2 6.9 43.2 0 7 0 0 0"/><path class="cls-1" d="M399.1,84.9h-6.9V128h6.9V109.9h9.1v17.4h6.9V113.8l-4.6-4h4.6V84.9h-16Zm0,18v-11h9.1V103h-9.1Z" transform="translate(-371.89999 -73.7)"/><path class="cls-1" d="M427.4,73.7h-6.9V128h6.9v-.1h16V103h-16V98.7h16V73.8h-16Zm9.1,36.2V121h-9.1V109.9Zm-9.1-18.2V80.6h9.1V91.7Z" transform="translate(-371.89999 -73.7)"/><path class="cls-1" d="M447.6,73.7v54.2h23V80.7l-6.9-2Zm16,36.2V121h-9.1V82.8l9.1,2.8v24.3Z" transform="translate(-371.89999 -73.7)"/><path class="cls-1" d="M474.8,73.7v54.2h23V80.7l-6.9-2Zm16,36.2V121h-9.1V82.8l9.1,2.8v24.3Z" transform="translate(-371.89999 -73.7)"/><path class="cls-1" d="M401,149h-4.1V136.4H401V138h-1.7v9.4H401Z" transform="translate(-371.89999 -73.7)"/><path class="cls-1" d="M410.3,139.4h2.4c2.6,0,3.6,1.5,3.6,2.8s-1,2.8-3.6,2.8h-2.4v2h-2.7v-2h-2.4c-2.6,0-3.6-1.5-3.6-2.8s1-2.8,3.6-2.8h2.4v-1.6h2.7Zm-6,2.8c0,.4.3.8,1,.8h2.3v-1.6h-2.3a.77.77,0,0,0-1,.8Zm9.3-.1c0-.4-.3-.8-1-.8h-2.3v1.6h2.3c.7,0,1-.3,1-.8Z" transform="translate(-371.89999 -73.7)"/><path class="cls-1" d="M427.3,142.5c0,2.8-2.3,4.5-5.2,4.5s-5.2-1.6-5.2-4.5c0-2.8,2.3-4.5,5.2-4.5S427.3,139.6,427.3,142.5Zm-2.8,0a2.402,2.402,0,1,0-2.4,2.5A2.38494,2.38494,0,0,0,424.5,142.5Z" transform="translate(-371.89999 -73.7)"/><path class="cls-1" d="M438.2,141.1c0,1.3-1,2.8-3.6,2.8H431v2.7h-2.7v-8.4h6.3C437.2,138.2,438.2,139.8,438.2,141.1Zm-2.8-.1c0-.4-.3-.8-1-.8H431v1.7h3.5a.79283.79283,0,0,0,.9-.9Z" transform="translate(-371.89999 -73.7)"/><path class="cls-1" d="M447.3,140.2h-5.5v1h2.7c2.6,0,3.6,1.2,3.6,2.7s-1,2.7-3.6,2.7H439v-8.4h8.3Zm-5.5,2.9v1.6h2.5c.7,0,1-.4,1-.8s-.3-.8-1-.8Z" transform="translate(-371.89999 -73.7)"/><path class="cls-1" d="M457.9,146.6h-2.7v-5.2l-3.4,5.2H449v-8.4h2.6v5.2l3.4-5.2h3v8.4Z" transform="translate(-371.89999 -73.7)"/><path class="cls-1" d="M469,148.7h-2.5v-2.1h-5.3v2.1h-2.5v-4.1h1.2l3.8-6.4h3.9v6.4H469Zm-4-4.1V140l-2.7,4.6Z" transform="translate(-371.89999 -73.7)"/><path class="cls-1" d="M479.6,148.7h-2.5v-2.1h-5.3v2.1h-2.5v-4.1h1.2l3.8-6.4h3.9v6.4h1.4Zm-3.9-4.1V140l-2.7,4.6Z" transform="translate(-371.89999 -73.7)"/><path class="cls-1" d="M487.3,146.6h-6.8v-8.4h6.8v2h-4.1v1.1h4.1v2h-4.1v1.4h4.1Z" transform="translate(-371.89999 -73.7)"/><path class="cls-1" d="M496.9,146.6h-2.7v-3.5h-3.1v3.5h-2.7v-8.4h2.7v3h3.1v-3h2.7Z" transform="translate(-371.89999 -73.7)"/><path class="cls-1" d="M497.9,147.4h1.7V138h-1.7v-1.6H502V149h-4.1Z" transform="translate(-371.89999 -73.7)"/><path class="cls-1" d="M405.7,163.1h-2.5V161h-5.3v2.1h-2.5V159h1.2l3.8-6.4h3.9V159h1.4Zm-4-4.1v-4.6L399,159Z" transform="translate(-371.89999 -73.7)"/><path class="cls-1" d="M415.5,161h-2.7v-5.2l-3.4,5.2h-2.8v-8.4h2.6v5.2l3.4-5.2h3V161Z" transform="translate(-371.89999 -73.7)"/><path class="cls-1" d="M419.3,155.9c.8,0,1-.4,1-.8,0-.5-.5-.8-1.1-.8a3.00122,3.00122,0,0,0-1.9.9h-.7v-2.1a6.4095,6.4095,0,0,1,3-.8c1.7,0,3.2.7,3.2,2.2a2.03847,2.03847,0,0,1-1.3,2,2.35955,2.35955,0,0,1,1.7,2.2c0,1.9-1.7,2.6-3.5,2.6a6.31754,6.31754,0,0,1-3.2-.8v-2.3h.8a2.45189,2.45189,0,0,0,2.1,1.1c.7,0,1.2-.4,1.2-.9s-.3-.9-1.2-.9h-.6v-1.6h.5Z" transform="translate(-371.89999 -73.7)"/><path class="cls-1" d="M432,161h-2.6v-1.8h-2.7l-1,1.8h-2.2v-.4l4.7-8h3.9V161Zm-2.6-3.5v-3.1l-1.8,3.1Z" transform="translate(-371.89999 -73.7)"/><path class="cls-1" d="M442.2,161h-2.7v-5.2l-3.4,5.2h-2.8v-8.4h2.6v5.2l3.4-5.2h3V161Zm-4.4-8.6a4.38776,4.38776,0,0,1-2.7-.9v-1.4h.7a2.67224,2.67224,0,0,0,4,0h.7v1.4A4.3876,4.3876,0,0,1,437.8,152.4Z" transform="translate(-371.89999 -73.7)"/><path class="cls-1" d="M452,161h-2.7v-3.5h-3.1V161h-2.7v-8.4h2.7v3h3.1v-3H452Z" transform="translate(-371.89999 -73.7)"/><path class="cls-1" d="M465.8,154.6h-5.5v1H463c2.6,0,3.6,1.2,3.6,2.7s-1,2.7-3.6,2.7h-5.4v-8.4h8.3v2Zm-5.5,2.9v1.6h2.5c.7,0,1-.4,1-.8s-.3-.8-1-.8Z" transform="translate(-371.89999 -73.7)"/><path class="cls-1" d="M481.5,156.9c0,2.8-2.2,4.5-5.1,4.5-2.7,0-4.7-1.4-5.1-3.8h-1.1v3.5h-2.7v-8.4h2.7v3h1.2c.6-2.1,2.5-3.2,5-3.2C479.3,152.4,481.5,154,481.5,156.9Zm-2.7,0a2.308,2.308,0,1,0-2.3,2.5A2.3036,2.3036,0,0,0,478.8,156.9Z" transform="translate(-371.89999 -73.7)"/><path class="cls-1" d="M492.4,155.5c0,1.3-1,2.8-3.6,2.8h-3.6V161h-2.7v-8.4h6.3C491.5,152.6,492.4,154.2,492.4,155.5Zm-2.7-.1c0-.4-.3-.8-1-.8h-3.5v1.7h3.5a.87089.87089,0,0,0,1-.9Z" transform="translate(-371.89999 -73.7)"/><path class="cls-1" d="M503.3,156.9c0,2.8-2.3,4.5-5.2,4.5s-5.2-1.6-5.2-4.5c0-2.8,2.3-4.5,5.2-4.5S503.3,154,503.3,156.9Zm-2.8,0a2.402,2.402,0,1,0-2.4,2.5A2.38493,2.38493,0,0,0,500.5,156.9Z" transform="translate(-371.89999 -73.7)"/></svg>